HIERARCHY
ROOT Hips
{
	OFFSET 0.000000 0.000000 0.000000
	CHANNELS 6 Xposition Yposition Zposition Xrotation Yrotation Zrotation
	JOINT Chest
	{
		OFFSET 0.000000 0.009282 11.569106
		CHANNELS 6 Xposition Yposition Zposition Xrotation Yrotation Zrotation
		JOINT Chest2
		{
			OFFSET 0.000000 -0.016863 9.269641
			CHANNELS 6 Xposition Yposition Zposition Xrotation Yrotation Zrotation
			JOINT Chest3
			{
				OFFSET 0.000000 0.000000 8.374491
				CHANNELS 6 Xposition Yposition Zposition Xrotation Yrotation Zrotation
				JOINT Chest4
				{
					OFFSET 0.000000 0.000000 8.374493
					CHANNELS 6 Xposition Yposition Zposition Xrotation Yrotation Zrotation
					JOINT Neck
					{
						OFFSET 0.000000 -0.000001 12.152554
						CHANNELS 6 Xposition Yposition Zposition Xrotation Yrotation Zrotation
						JOINT Head
						{
							OFFSET 0.000000 -0.040100 7.802319
							CHANNELS 6 Xposition Yposition Zposition Xrotation Yrotation Zrotation
							End Site
							{
								OFFSET 0.000000 -0.020946 14.853096
							}
						}
					}
					JOINT RightCollar
					{
						OFFSET -2.894404 0.000000 6.791374
						CHANNELS 6 Xposition Yposition Zposition Xrotation Yrotation Zrotation
						JOINT RightShoulder
						{
							OFFSET -13.574684 0.000000 0.000000
							CHANNELS 6 Xposition Yposition Zposition Xrotation Yrotation Zrotation
							JOINT RightElbow
							{
								OFFSET -23.923903 0.000000 0.000000
								CHANNELS 6 Xposition Yposition Zposition Xrotation Yrotation Zrotation
								JOINT RightWrist
								{
									OFFSET -19.846718 -0.012765 0.000000
									CHANNELS 6 Xposition Yposition Zposition Xrotation Yrotation Zrotation
									End Site
									{
										OFFSET -14.973145 0.000000 0.000000
									}
								}
							}
						}
					}
					JOINT LeftCollar
					{
						OFFSET 2.894404 0.000000 6.791374
						CHANNELS 6 Xposition Yposition Zposition Xrotation Yrotation Zrotation
						JOINT LeftShoulder
						{
							OFFSET 13.574684 0.000000 0.000000
							CHANNELS 6 Xposition Yposition Zposition Xrotation Yrotation Zrotation
							JOINT LeftElbow
							{
								OFFSET 23.923903 0.000000 0.000000
								CHANNELS 6 Xposition Yposition Zposition Xrotation Yrotation Zrotation
								JOINT LeftWrist
								{
									OFFSET 19.846718 -0.012765 0.000000
									CHANNELS 6 Xposition Yposition Zposition Xrotation Yrotation Zrotation
									End Site
									{
										OFFSET 14.973145 0.000000 0.000000
									}
								}
							}
						}
					}
				}
			}
		}
	}
	JOINT RightHip
	{
		OFFSET -9.469263 -0.004642 0.045487
		CHANNELS 6 Xposition Yposition Zposition Xrotation Yrotation Zrotation
		JOINT RightKnee
		{
			OFFSET 0.000000 -0.002666 -40.478676
			CHANNELS 6 Xposition Yposition Zposition Xrotation Yrotation Zrotation
			JOINT RightAnkle
			{
				OFFSET 0.000000 -0.049110 -35.224068
				CHANNELS 6 Xposition Yposition Zposition Xrotation Yrotation Zrotation
				JOINT RightToe
				{
					OFFSET 0.000000 -12.539530 -6.151390
					CHANNELS 6 Xposition Yposition Zposition Xrotation Yrotation Zrotation
					End Site
					{
						OFFSET 0.000000 -5.044995 -1.291870
					}
				}
			}
		}
	}
	JOINT LeftHip
	{
		OFFSET 9.469263 -0.004642 0.045487
		CHANNELS 6 Xposition Yposition Zposition Xrotation Yrotation Zrotation
		JOINT LeftKnee
		{
			OFFSET 0.000000 -0.002666 -40.478676
			CHANNELS 6 Xposition Yposition Zposition Xrotation Yrotation Zrotation
			JOINT LeftAnkle
			{
				OFFSET 0.000000 -0.049110 -35.224068
				CHANNELS 6 Xposition Yposition Zposition Xrotation Yrotation Zrotation
				JOINT LeftToe
				{
					OFFSET 0.000000 -12.539530 -6.151390
					CHANNELS 6 Xposition Yposition Zposition Xrotation Yrotation Zrotation
					End Site
					{
						OFFSET 0.000000 -5.044995 -1.291870
					}
				}
			}
		}
	}
}
MOTION
Frames: 8
Frame Time: 0.016667
-8.258789 -6.215590 83.266624 2.561225 6.269420 -111.643499 0.000000 0.009284 11.569104 0.883652 -1.161996 0.902227 -0.000000 -0.016863 9.269623 0.388112 -0.524883 0.388413 0.000000 0.000000 8.374484 0.388113 -0.524883 0.388409 -0.000001 0.000001 8.374489 0.290747 -0.393910 0.290970 -0.000000 -0.000003 12.152555 21.207290 0.853765 -1.794545 0.000000 -0.040097 7.802307 3.233320 2.082340 -3.037550 -2.894405 0.000000 6.791370 -0.352970 -7.318946 0.493155 -13.574680 0.000000 -0.000000 61.369755 -85.917769 73.444778 -23.923891 0.000001 0.000002 -32.502138 -51.382646 10.764426 -19.846716 -0.012760 0.000014 -64.350067 18.806835 45.303603 2.894403 0.000001 6.791368 4.229005 7.845847 -10.771799 13.574683 0.000001 -0.000004 14.642309 50.322505 -62.277515 23.923904 -0.000001 -0.000008 41.597566 4.866152 -29.066502 19.846720 -0.012772 0.000005 19.181640 -31.585196 -48.232614 -9.469263 -0.004640 0.045481 7.868719 0.379200 0.283905 0.000344 -0.002690 -40.478607 1.560510 -0.113466 -7.372584 -0.000229 -0.049126 -35.224186 -2.436060 -1.558651 4.891520 -0.000004 -12.539529 -6.151383 0.031605 -0.085045 0.065467 9.469264 -0.004640 0.045488 8.401431 0.766648 -1.283780 -0.000081 -0.002668 -40.478642 0.576402 -0.916033 1.714053 0.000134 -0.049115 -35.224117 -1.186848 0.231798 -2.849668 0.000004 -12.539529 -6.151379 -0.056831 0.166787 -0.064617 
-8.259750 -6.190837 83.267365 2.559740 6.291360 -111.627059 0.000000 0.009282 11.569101 0.885651 -1.152547 0.915397 -0.000000 -0.016863 9.269642 0.389164 -0.520103 0.394600 -0.000001 0.000001 8.374496 0.389165 -0.520103 0.394601 0.000001 -0.000000 8.374493 0.291537 -0.390329 0.295614 -0.000000 -0.000002 12.152561 21.182003 0.814750 -1.780716 0.000000 -0.040101 7.802317 3.185315 2.007538 -3.023146 -2.894404 0.000000 6.791376 -0.346909 -7.312757 0.485937 -13.574677 -0.000001 0.000009 61.600472 -85.892074 73.676376 -23.923910 0.000004 -0.000001 -32.351119 -51.326030 10.852770 -19.846725 -0.012768 0.000008 -64.226338 18.885067 45.181804 2.894404 -0.000001 6.791380 4.239904 7.840664 -10.774317 13.574685 0.000001 0.000004 14.637534 50.331965 -62.283047 23.923901 -0.000007 -0.000004 41.587926 4.869926 -29.054959 19.846718 -0.012770 0.000012 19.196124 -31.575753 -48.257281 -9.469264 -0.004641 0.045479 7.892973 0.367976 0.273379 0.000343 -0.002689 -40.478596 1.569832 -0.121211 -7.363387 -0.000226 -0.049124 -35.224171 -2.457681 -1.520041 4.839702 -0.000004 -12.539529 -6.151379 0.028088 -0.085686 0.063317 9.469263 -0.004642 0.045481 8.420118 0.764733 -1.297751 -0.000080 -0.002668 -40.478642 0.590297 -0.924866 1.711328 0.000134 -0.049116 -35.224121 -1.192025 0.222304 -2.869407 0.000003 -12.539535 -6.151380 -0.045157 0.161158 -0.063330 
-8.261204 -6.166984 83.267311 2.556841 6.309076 -111.605674 -0.000000 0.009281 11.569112 0.887157 -1.142010 0.927309 0.000000 -0.016864 9.269639 0.389765 -0.514812 0.399996 0.000001 0.000001 8.374500 0.389766 -0.514812 0.399991 0.000000 0.000001 8.374493 0.291987 -0.386364 0.299664 -0.000001 -0.000003 12.152561 21.151448 0.778468 -1.769743 0.000000 -0.040099 7.802311 3.127671 1.938689 -3.013148 -2.894404 0.000000 6.791374 -0.350240 -7.316012 0.463082 -13.574685 0.000001 -0.000009 61.886397 -85.862533 73.963627 -23.923912 0.000004 0.000002 -32.191737 -51.252107 10.972482 -19.846714 -0.012768 -0.000004 -64.149731 18.967101 45.066312 2.894404 0.000001 6.791374 4.241330 7.836235 -10.771515 13.574686 -0.000000 0.000005 14.662094 50.342148 -62.299952 23.923899 -0.000009 -0.000008 41.555240 4.874249 -29.049071 19.846720 -0.012761 -0.000000 19.213698 -31.557895 -48.236077 -9.469264 -0.004644 0.045486 7.918697 0.363273 0.255250 0.000344 -0.002689 -40.478607 1.572965 -0.131748 -7.374160 -0.000227 -0.049127 -35.224186 -2.477817 -1.488364 4.864698 -0.000004 -12.539532 -6.151381 0.025886 -0.084889 0.062223 9.469264 -0.004643 0.045496 8.436604 0.759918 -1.313474 -0.000079 -0.002667 -40.478642 0.599469 -0.931127 1.714310 0.000134 -0.049120 -35.224121 -1.198623 0.215049 -2.895135 0.000004 -12.539532 -6.151392 -0.032998 0.154543 -0.063210 
-8.265161 -6.144623 83.267029 2.551669 6.323474 -111.581153 -0.000000 0.009284 11.569109 0.884988 -1.137415 0.931039 -0.000001 -0.016864 9.269644 0.388426 -0.512291 0.402197 0.000002 0.000000 8.374494 0.388427 -0.512291 0.402194 -0.000000 -0.000001 8.374493 0.290981 -0.384474 0.301316 -0.000000 -0.000003 12.152534 21.120142 0.750028 -1.763039 -0.000000 -0.040098 7.802316 3.068881 1.885440 -3.008723 -2.894405 0.000000 6.791374 -0.358347 -7.307178 0.439454 -13.574684 0.000002 0.000003 62.141819 -85.845260 74.213967 -23.923893 0.000001 0.000004 -32.106100 -51.202185 11.017681 -19.846716 -0.012768 0.000006 -64.089277 19.027336 44.968975 2.894404 0.000001 6.791361 4.254158 7.850268 -10.766057 13.574686 0.000002 0.000008 14.681195 50.367888 -62.313735 23.923891 -0.000003 -0.000016 41.501049 4.895860 -29.026590 19.846706 -0.012766 -0.000001 19.247482 -31.488641 -48.138555 -9.469262 -0.004640 0.045491 7.947684 0.356862 0.225474 0.000345 -0.002690 -40.478603 1.562659 -0.137766 -7.377741 -0.000230 -0.049126 -35.224182 -2.492728 -1.460183 4.905768 -0.000003 -12.539533 -6.151379 0.025728 -0.082495 0.061103 9.469265 -0.004640 0.045490 8.452012 0.754497 -1.323914 -0.000080 -0.002667 -40.478645 0.605001 -0.932849 1.720479 0.000136 -0.049117 -35.224121 -1.205723 0.206762 -2.945838 0.000002 -12.539533 -6.151388 -0.022598 0.147261 -0.062834 
-8.270150 -6.123551 83.266800 2.543806 6.332880 -111.553026 -0.000000 0.009282 11.569096 0.889876 -1.131740 0.941460 0.000000 -0.016862 9.269639 0.390486 -0.509727 0.407082 0.000000 -0.000001 8.374493 0.390485 -0.509728 0.407080 -0.000000 0.000000 8.374493 0.292524 -0.382556 0.304979 -0.000001 0.000001 12.152547 21.076967 0.718166 -1.770580 0.000000 -0.040104 7.802312 2.988384 1.830350 -3.031235 -2.894405 0.000002 6.791374 -0.356682 -7.307307 0.419907 -13.574679 0.000001 0.000007 62.068695 -85.826914 74.158560 -23.923901 -0.000003 -0.000002 -32.056803 -51.169622 11.035866 -19.846720 -0.012762 0.000013 -64.032580 19.040196 44.869999 2.894403 0.000001 6.791368 4.247740 7.851350 -10.771575 13.574685 0.000001 -0.000000 14.711693 50.426788 -62.320579 23.923903 -0.000007 0.000007 41.466618 4.900175 -28.985871 19.846716 -0.012768 0.000006 19.255516 -31.440484 -48.104384 -9.469263 -0.004643 0.045479 7.972295 0.351307 0.199330 0.000345 -0.002689 -40.478607 1.551540 -0.143854 -7.384235 -0.000230 -0.049125 -35.224194 -2.508934 -1.434895 4.915849 -0.000003 -12.539532 -6.151376 0.026342 -0.078754 0.059657 9.469264 -0.004643 0.045478 8.462392 0.752633 -1.334469 -0.000081 -0.002668 -40.478634 0.608449 -0.934197 1.726691 0.000140 -0.049115 -35.224129 -1.211811 0.198447 -2.970875 0.000001 -12.539531 -6.151382 -0.013940 0.138550 -0.061800 
-8.276166 -6.105898 83.266373 2.534435 6.336485 -111.523179 -0.000001 0.009280 11.569112 0.899353 -1.130618 0.946961 0.000000 -0.016863 9.269637 0.394842 -0.509741 0.409854 -0.000000 -0.000000 8.374487 0.394843 -0.509741 0.409858 0.000000 -0.000001 8.374499 0.295788 -0.382570 0.307060 0.000001 -0.000001 12.152557 21.027086 0.692375 -1.784524 0.000000 -0.040106 7.802297 2.895726 1.788403 -3.063675 -2.894403 0.000000 6.791379 -0.371642 -7.297162 0.411013 -13.574682 -0.000001 0.000001 61.961454 -85.799921 74.061572 -23.923910 0.000001 -0.000001 -31.985602 -51.136588 11.080432 -19.846718 -0.012770 -0.000001 -63.957584 19.081986 44.823291 2.894405 -0.000000 6.791378 4.219626 7.866724 -10.763087 13.574685 0.000001 -0.000004 14.747160 50.461089 -62.329451 23.923887 -0.000014 -0.000001 41.457401 4.882715 -28.968113 19.846716 -0.012764 0.000013 19.271563 -31.417692 -48.119950 -9.469265 -0.004644 0.045491 7.990942 0.347189 0.183931 0.000345 -0.002690 -40.478592 1.540073 -0.150663 -7.399183 -0.000230 -0.049126 -35.224186 -2.525265 -1.414622 4.912318 -0.000002 -12.539532 -6.151383 0.027486 -0.073106 0.058369 9.469262 -0.004645 0.045488 8.466594 0.752459 -1.355823 -0.000084 -0.002668 -40.478642 0.611984 -0.937335 1.730035 0.000139 -0.049114 -35.224125 -1.218871 0.189254 -2.973472 0.000001 -12.539531 -6.151387 -0.005986 0.131529 -0.061103 
-8.283321 -6.093105 83.265640 2.524480 6.337350 -111.491971 0.000001 0.009283 11.569094 0.917895 -1.124989 0.951788 0.000001 -0.016861 9.269636 0.403314 -0.507769 0.412377 0.000001 0.000001 8.374486 0.403314 -0.507769 0.412378 -0.000000 -0.000002 8.374491 0.302143 -0.381100 0.308949 0.000000 -0.000002 12.152572 20.969003 0.667175 -1.802955 -0.000001 -0.040105 7.802301 2.787957 1.749073 -3.104091 -2.894404 0.000000 6.791391 -0.433457 -7.302303 0.409161 -13.574685 -0.000000 0.000003 61.795734 -85.764240 73.876371 -23.923908 0.000000 -0.000000 -31.922863 -51.085864 11.130557 -19.846724 -0.012759 0.000007 -63.873327 19.131853 44.772880 2.894404 0.000001 6.791384 4.193976 7.867992 -10.766233 13.574683 -0.000002 0.000007 14.720588 50.475084 -62.298893 23.923903 -0.000008 -0.000002 41.492296 4.871749 -28.995055 19.846718 -0.012773 0.000000 19.233430 -31.440682 -48.143425 -9.469262 -0.004642 0.045483 8.006640 0.347199 0.166188 0.000347 -0.002689 -40.478596 1.527623 -0.160741 -7.420144 -0.000229 -0.049125 -35.224190 -2.542002 -1.396333 4.900638 -0.000003 -12.539532 -6.151376 0.029909 -0.068212 0.055952 9.469263 -0.004644 0.045482 8.465954 0.754693 -1.381424 -0.000081 -0.002668 -40.478653 0.618226 -0.940836 1.729658 0.000140 -0.049113 -35.224129 -1.227270 0.178794 -2.983250 0.000002 -12.539530 -6.151378 0.000949 0.124546 -0.059752 
-8.289799 -6.080731 83.265091 2.513753 6.339343 -111.461925 -0.000000 0.009281 11.569097 0.933291 -1.115102 0.961019 0.000001 -0.016860 9.269628 0.410468 -0.502549 0.416749 0.000001 -0.000001 8.374491 0.410467 -0.502549 0.416750 0.000000 0.000000 8.374506 0.307507 -0.377192 0.312223 0.000000 -0.000001 12.152563 20.914652 0.639231 -1.825727 0.000002 -0.040104 7.802316 2.687180 1.705938 -3.153338 -2.894404 0.000001 6.791371 -0.462082 -7.307443 0.402848 -13.574681 0.000001 0.000011 61.859835 -85.743743 73.938191 -23.923927 0.000002 0.000001 -31.881486 -51.025280 11.166700 -19.846724 -0.012766 -0.000003 -63.846300 19.153739 44.709541 2.894404 0.000000 6.791383 4.175084 7.848668 -10.771419 13.574686 0.000000 0.000011 14.705933 50.465334 -62.274441 23.923903 0.000009 -0.000008 41.476109 4.889357 -29.039120 19.846722 -0.012768 0.000011 19.322313 -31.422709 -48.092540 -9.469262 -0.004643 0.045477 8.022040 0.349484 0.155180 0.000348 -0.002690 -40.478603 1.517041 -0.168388 -7.453940 -0.000231 -0.049126 -35.224186 -2.556964 -1.381476 4.912007 -0.000003 -12.539532 -6.151382 0.030478 -0.064350 0.053446 9.469262 -0.004644 0.045486 8.464182 0.759830 -1.398820 -0.000083 -0.002667 -40.478657 0.627681 -0.943858 1.725742 0.000142 -0.049116 -35.224125 -1.235906 0.167724 -2.979379 0.000002 -12.539530 -6.151388 0.005313 0.117624 -0.056558 
